<?xml version="1.0" standalone="no"?><!DOCTYPE svg PUBLIC "-//W3C//DTD SVG 1.1//EN" "http://www.w3.org/Graphics/SVG/1.1/DTD/svg11.dtd"><svg t="1559272256058" class="icon" style="" viewBox="0 0 1025 1024" version="1.1" xmlns="http://www.w3.org/2000/svg" p-id="1484" xmlns:xlink="http://www.w3.org/1999/xlink" width="200.1953125" height="200"><defs><style type="text/css"></style></defs><path d="M513.461465 511.512845m-511.512845 0a511.512845 511.512845 0 1 0 1023.02569 0 511.512845 511.512845 0 1 0-1023.02569 0Z" fill="#0B121C" p-id="1485"></path><path d="M513.461465 309.830637c-125.198858 0-212.886775 53.58706-212.886774 53.58706 48.228354-42.869648 132.019029-67.714558 132.019029-67.714557l-7.794481-7.794482c-78.919125 1.461465-150.530923 56.022835-150.530923 56.022836-80.38059 167.581351-75.021884 312.753568-75.021884 312.753568 65.278782 84.764986 162.7098 78.43197 162.7098 78.431969l33.126546-41.895337c-58.458611-12.666032-95.482398-64.304472-95.482397-64.304472s87.687916 59.920076 213.861084 59.920076 213.861085-59.920076 213.861085-59.920076-37.023787 52.125595-95.482398 64.304472l33.126546 41.895337s96.943863 6.333016 162.709801-78.431969c0 0 5.358706-144.685062-75.509039-312.753568 0 0-71.611798-54.56137-150.530923-56.022836l-7.794482 7.794482s84.277831 24.84491 132.01903 67.714557c0.97431 0-87.200761-53.58706-212.39962-53.58706M417.004757 486.667935c30.203616 0 55.048525 26.79353 54.56137 59.432921 0 32.152236-24.357755 59.432921-54.56137 59.432921-29.716461 0-54.074215-27.280685-54.074215-59.432921 0-32.639391 23.383444-59.432921 54.074215-59.432921m194.862037 0c30.203616 0 54.56137 26.79353 54.56137 59.432921 0 32.152236-24.357755 59.432921-54.56137 59.432921-29.716461 0-54.074215-27.280685-54.074216-59.432921 0-32.639391 23.383444-59.432921 54.074216-59.432921z" fill="#FFFFFF" p-id="1486"></path></svg>